<svg width="147" height="26" viewBox="0 0 147 26" fill="none" xmlns="http://www.w3.org/2000/svg">
<g id="Logo">
<g id="Group 251">
<path id="Vector" d="M20.9012 11.574C20.294 9.64141 18.4891 8.23877 16.3562 8.23877C16.2285 8.23877 16.1018 8.24428 15.9759 8.25347C13.5234 8.44728 11.5935 10.4993 11.5935 13.0024C11.5935 15.6322 13.7255 17.7651 16.3562 17.7651C16.629 17.7651 16.8963 17.7422 17.1572 17.6981C19.3185 17.3325 20.9839 15.511 21.1106 13.278C21.1161 13.187 21.1189 13.0952 21.1189 13.0024C21.1189 12.5045 21.0427 12.0251 20.9012 11.574ZM18.3504 13.2302C18.2365 14.2296 17.3859 15.0095 16.3562 15.0095C15.2493 15.0095 14.3492 14.1083 14.3492 13.0024C14.3492 11.8965 15.2493 10.9944 16.3562 10.9944C17.2132 10.9944 17.9471 11.5355 18.2337 12.2933C18.3173 12.5137 18.3632 12.7526 18.3632 13.0024C18.3632 13.0796 18.3587 13.1558 18.3504 13.2302Z" fill="#1CB78D"/>
<path id="Vector_2" d="M39.2154 11.574C38.6083 9.64141 36.8033 8.23877 34.6704 8.23877C34.5427 8.23877 34.416 8.24428 34.2901 8.25347C31.8376 8.44728 29.9077 10.4993 29.9077 13.0024C29.9077 15.6322 32.0397 17.7651 34.6704 17.7651C34.9432 17.7651 35.2105 17.7422 35.4714 17.6981C37.6327 17.3325 39.2981 15.511 39.4248 13.278C39.4304 13.187 39.4331 13.0952 39.4331 13.0024C39.4331 12.5045 39.3569 12.0251 39.2154 11.574ZM36.6646 13.2302C36.5507 14.2296 35.7001 15.0095 34.6704 15.0095C33.5636 15.0095 32.6634 14.1083 32.6634 13.0024C32.6634 11.8965 33.5636 10.9944 34.6704 10.9944C35.5274 10.9944 36.2613 11.5355 36.5479 12.2933C36.6315 12.5137 36.6775 12.7526 36.6775 13.0024C36.6775 13.0796 36.6729 13.1558 36.6646 13.2302Z" fill="#052C47"/>
<path id="Vector_3" d="M128.449 11.574C127.842 9.64141 126.037 8.23877 123.904 8.23877C123.777 8.23877 123.65 8.24428 123.524 8.25347C121.071 8.44728 119.142 10.4993 119.142 13.0024C119.142 15.6322 121.274 17.7651 123.904 17.7651C124.177 17.7651 124.444 17.7422 124.705 17.6981C126.867 17.3325 128.532 15.511 128.659 13.278C128.664 13.187 128.667 13.0952 128.667 13.0024C128.667 12.5045 128.591 12.0251 128.449 11.574ZM125.898 13.2302C125.785 14.2296 124.934 15.0095 123.904 15.0095C122.797 15.0095 121.897 14.1083 121.897 13.0024C121.897 11.8965 122.797 10.9944 123.904 10.9944C124.761 10.9944 125.495 11.5355 125.782 12.2933C125.865 12.5137 125.911 12.7526 125.911 13.0024C125.911 13.0796 125.907 13.1558 125.898 13.2302Z" fill="#052C47"/>
<path id="Vector_4" d="M26.8902 6.65319C27.1088 6.42814 27.4175 6.31608 27.817 6.31608C28.0292 6.31608 28.2102 6.35099 28.3599 6.41896C28.5096 6.48785 28.641 6.5843 28.7531 6.70922L30.569 4.87395C30.2191 4.52489 29.8103 4.24382 29.3428 4.03163C28.8743 3.81944 28.3287 3.71289 27.705 3.71289C26.8939 3.71289 26.182 3.88833 25.5703 4.23739C24.9585 4.58736 24.49 5.05858 24.1658 5.65105C23.8406 6.24443 23.679 6.91498 23.679 7.6636V8.43152H21.6572V10.8841H23.679V17.5307H26.5623V10.885H29.1646V8.43244H26.5623V7.57083C26.5623 7.18412 26.6716 6.87824 26.8902 6.65319Z" fill="#052C47"/>
<path id="Vector_5" d="M46.2783 8.24512C45.2917 8.24512 44.5146 8.53906 43.947 9.12509C43.9442 9.12877 43.9405 9.13152 43.9378 9.1352V8.4325H41.0544V17.5317H43.9378V12.5513C43.9378 11.9644 44.0783 11.5244 44.3594 11.2313C44.6405 10.9383 45.0244 10.7914 45.5113 10.7914C45.7482 10.7914 45.9604 10.829 46.1478 10.9034C46.3352 10.9787 46.4849 11.0779 46.597 11.2029L48.3009 9.0314C48.0511 8.76961 47.7608 8.57304 47.4301 8.44169C47.0994 8.31033 46.7155 8.24512 46.2783 8.24512Z" fill="#052C47"/>
<path id="Vector_6" d="M54.4608 13.6564C54.4608 14.1313 54.3396 14.5052 54.0962 14.7798C53.8527 15.0545 53.5184 15.1914 53.094 15.1914C52.8065 15.1914 52.5576 15.1289 52.3454 15.004C52.1332 14.879 51.9706 14.7018 51.8586 14.4703C51.7465 14.2397 51.6905 13.9678 51.6905 13.6555V8.43262H48.8071V13.6941C48.8071 14.4804 48.9881 15.1767 49.35 15.782C49.7119 16.3873 50.2208 16.865 50.8757 17.214C51.5306 17.5631 52.271 17.7385 53.094 17.7385C53.917 17.7385 54.6859 17.5667 55.3224 17.2232C55.959 16.8797 56.455 16.4057 56.8114 15.8004C57.1669 15.195 57.3451 14.4933 57.3451 13.6941V8.43262H54.4617V13.6564H54.4608Z" fill="#052C47"/>
<path id="Vector_7" d="M71.8913 8.68505C71.342 8.39203 70.7238 8.24506 70.0377 8.24506C69.3515 8.24506 68.6828 8.39478 68.1087 8.69423C67.722 8.8954 67.3913 9.1581 67.1121 9.47776C66.8503 9.15167 66.5371 8.88346 66.1706 8.67494C65.6654 8.38835 65.1004 8.24414 64.4758 8.24414C63.7897 8.24414 63.1807 8.38468 62.6507 8.66576C62.4137 8.7916 62.1987 8.94133 62.0049 9.11401V8.43153H59.1216V17.5308H62.0049V12.2132C62.0049 11.9138 62.0701 11.6575 62.2015 11.4453C62.3328 11.2331 62.5101 11.0678 62.7352 10.9493C62.9602 10.8308 63.2156 10.7711 63.5031 10.7711C63.9146 10.7711 64.2609 10.8988 64.542 11.155C64.823 11.4113 64.9636 11.7631 64.9636 12.2132V17.5308H67.8469V12.2132C67.8469 11.9138 67.9094 11.6575 68.0343 11.4453C68.1592 11.2331 68.3365 11.0678 68.568 10.9493C68.7985 10.8308 69.0511 10.7711 69.3267 10.7711C69.7263 10.7711 70.0661 10.8988 70.3472 11.155C70.6283 11.4113 70.7688 11.7631 70.7688 12.2132V17.5308H73.6522V11.8761C73.6522 11.1146 73.496 10.4661 73.1837 9.92877C72.8714 9.39234 72.4406 8.97715 71.8913 8.68321V8.68505Z" fill="#052C47"/>
<path id="Vector_8" d="M81.8425 8.44169C81.5118 8.31033 81.1278 8.24512 80.6906 8.24512C79.7041 8.24512 78.927 8.53906 78.3593 9.12509C78.3566 9.12877 78.3529 9.13152 78.3501 9.1352V8.4325H75.4668V17.5317H78.3501V12.5513C78.3501 11.9644 78.4907 11.5244 78.7718 11.2313C79.0528 10.9383 79.4368 10.7914 79.9236 10.7914C80.1606 10.7914 80.3728 10.829 80.5602 10.9034C80.7476 10.9787 80.8973 11.0779 81.0093 11.2029L82.7133 9.0314C82.4634 8.76961 82.1732 8.57304 81.8425 8.44169Z" fill="#052C47"/>
<path id="Vector_9" d="M89.5098 9.1848C89.2646 8.95149 88.9807 8.75675 88.6574 8.6006C88.1641 8.36361 87.6121 8.24512 87.0003 8.24512C86.1635 8.24512 85.4186 8.44812 84.7627 8.8532C84.1078 9.2592 83.5897 9.82044 83.2085 10.5378C82.8273 11.2561 82.6372 12.07 82.6372 12.9812C82.6372 13.8924 82.8273 14.7007 83.2085 15.4062C83.5888 16.1116 84.1106 16.6729 84.7719 17.0917C85.4333 17.5097 86.1764 17.7191 87.0003 17.7191C87.624 17.7191 88.1825 17.6006 88.6758 17.3636C88.9927 17.2112 89.2701 17.0219 89.5089 16.795V17.5326H92.3362V8.4325H89.5089V9.1848H89.5098ZM87.6001 15.1168C87.2134 15.1168 86.8671 15.0268 86.5613 14.8449C86.2554 14.664 86.012 14.4114 85.831 14.0862C85.6501 13.762 85.5591 13.3936 85.5591 12.9812C85.5591 12.5688 85.6491 12.2013 85.831 11.8762C86.012 11.5519 86.2554 11.2993 86.5613 11.1184C86.8671 10.9374 87.2134 10.8465 87.6001 10.8465C87.9869 10.8465 88.3552 10.9374 88.6675 11.1184C88.9789 11.2993 89.2168 11.5492 89.3794 11.867C89.5411 12.1848 89.6228 12.5504 89.6228 12.9619C89.6228 13.5985 89.4382 14.1165 89.0708 14.5161C88.7024 14.9157 88.2128 15.115 87.6011 15.115L87.6001 15.1168Z" fill="#052C47"/>
<path id="Vector_10" d="M101.549 8.68515C101.012 8.39213 100.388 8.24516 99.6766 8.24516C98.9657 8.24516 98.3787 8.39213 97.8414 8.68515C97.6145 8.80915 97.4096 8.95612 97.2232 9.12422V3.93896H94.3398V17.5318H97.2232V12.3456C97.2232 12.0333 97.2921 11.7586 97.4289 11.5217C97.5658 11.2847 97.7532 11.1 97.9911 10.9696C98.2281 10.8382 98.4963 10.773 98.7967 10.773C99.2458 10.773 99.6206 10.92 99.9201 11.213C100.22 11.506 100.369 11.8845 100.369 12.3456V17.5318H103.253V11.709C103.253 11.0229 103.103 10.4203 102.803 9.90224C102.504 9.38417 102.085 8.97909 101.549 8.68515Z" fill="#052C47"/>
<path id="Vector_11" d="M106.866 14.2734C106.366 14.2734 105.957 14.4388 105.64 14.7695C105.322 15.1001 105.162 15.5089 105.162 15.9957C105.162 16.4826 105.321 16.8941 105.64 17.2312C105.958 17.5683 106.367 17.7364 106.866 17.7364C107.365 17.7364 107.774 17.5683 108.092 17.2312C108.41 16.8941 108.57 16.4826 108.57 15.9957C108.57 15.5089 108.411 15.1001 108.092 14.7695C107.773 14.4388 107.365 14.2734 106.866 14.2734Z" fill="#052C47"/>
<path id="Vector_12" d="M115.882 14.9293C115.589 15.0542 115.254 15.1167 114.88 15.1167C114.505 15.1167 114.137 15.0266 113.812 14.8448C113.487 14.6638 113.235 14.4112 113.055 14.086C112.874 13.7618 112.783 13.387 112.783 12.9626C112.783 12.5383 112.873 12.1855 113.055 11.8677C113.235 11.5499 113.485 11.3001 113.803 11.1191C114.121 10.9381 114.48 10.8472 114.88 10.8472C115.242 10.8472 115.563 10.9032 115.844 11.0153C116.125 11.1274 116.371 11.3028 116.584 11.5398L118.437 9.66778C117.975 9.1938 117.448 8.83465 116.855 8.59123C116.262 8.34781 115.604 8.22656 114.881 8.22656C113.932 8.22656 113.077 8.43232 112.315 8.84475C111.554 9.25626 110.955 9.82118 110.517 10.5395C110.08 11.2578 109.863 12.0716 109.863 12.9829C109.863 13.8941 110.077 14.6932 110.508 15.417C110.939 16.1408 111.535 16.7085 112.297 17.1209C113.058 17.5325 113.913 17.7391 114.861 17.7391C115.61 17.7391 116.281 17.6115 116.874 17.3552C117.466 17.0998 118.006 16.7214 118.493 16.2226L116.64 14.3873C116.427 14.6243 116.175 14.8053 115.882 14.9302V14.9293Z" fill="#052C47"/>
<path id="Vector_13" d="M144.349 9.92963C144.037 9.3932 143.606 8.97801 143.057 8.68407C142.508 8.39105 141.89 8.24408 141.203 8.24408C140.517 8.24408 139.849 8.39381 139.274 8.69326C138.888 8.89442 138.557 9.15713 138.278 9.47679C138.016 9.1507 137.703 8.88248 137.336 8.67397C136.831 8.38738 136.266 8.24316 135.642 8.24316C134.955 8.24316 134.346 8.3837 133.816 8.66478C133.579 8.79062 133.365 8.94035 133.171 9.11304V8.43055H130.287V17.5298H133.171V12.2122C133.171 11.9128 133.236 11.6565 133.367 11.4443C133.499 11.2321 133.676 11.0668 133.901 10.9483C134.126 10.8298 134.381 10.7701 134.669 10.7701C135.08 10.7701 135.427 10.8978 135.708 11.1541C135.989 11.4103 136.129 11.7622 136.129 12.2122V17.5298H139.013V12.2122C139.013 11.9128 139.075 11.6565 139.2 11.4443C139.325 11.2321 139.502 11.0668 139.734 10.9483C139.964 10.8298 140.217 10.7701 140.492 10.7701C140.892 10.7701 141.232 10.8978 141.513 11.1541C141.794 11.4103 141.935 11.7622 141.935 12.2122V17.5298H144.818V11.8751C144.818 11.1137 144.662 10.4652 144.349 9.9278V9.92963Z" fill="#052C47"/>
<g id="Group">
<path id="Vector_14" d="M10.4611 18.1718C10.4611 20.9146 8.23725 23.1384 5.49445 23.1384C2.75165 23.1384 0.527832 20.9146 0.527832 18.1718H3.03456C3.03456 19.5303 4.13591 20.6317 5.49445 20.6317C6.45618 20.6317 7.2893 20.0796 7.69347 19.2759C8.50639 19.0894 9.24215 18.7036 9.84839 18.1718C10.0569 17.989 10.2498 17.7887 10.4252 17.5747C10.4491 17.7704 10.4611 17.9697 10.4611 18.1718Z" fill="#1CB78D"/>
<path id="Vector_15" d="M5.49445 10.7453C4.13591 10.7453 3.03456 11.8466 3.03456 13.2052C3.03456 13.4155 3.0612 13.6185 3.1108 13.8132C3.38178 14.8779 4.34626 15.6641 5.49445 15.6641C6.64264 15.6641 7.60804 14.8769 7.87901 13.8132C7.92862 13.6185 7.95525 13.4146 7.95525 13.2052H10.462C10.462 14.1099 10.2204 14.9578 9.79695 15.688C9.35697 16.4495 8.71949 17.0833 7.95525 17.5196C7.93045 17.5343 7.90473 17.5481 7.87901 17.5619C7.17173 17.9504 6.35881 18.1709 5.49445 18.1709C4.63009 18.1709 3.81809 17.9504 3.1108 17.5619C2.84259 17.4149 2.58998 17.245 2.35575 17.053C1.89096 16.6736 1.49507 16.2107 1.19286 15.688C0.77033 14.9578 0.527832 14.109 0.527832 13.2052C0.527832 12.3013 0.764819 11.47 1.17909 10.7453C2.03426 9.24802 3.64632 8.23853 5.49445 8.23853H10.4611V10.7453H5.49445Z" fill="#1CB78D"/>
</g>
</g>
</g>
</svg>
