<svg width="146" height="26" viewBox="0 0 146 26" fill="none" xmlns="http://www.w3.org/2000/svg">
<g id="Logo">
<g id="Group 251">
<path id="Vector" d="M20.9019 11.5738C20.2948 9.64116 18.4898 8.23853 16.3569 8.23853C16.2292 8.23853 16.1025 8.24404 15.9766 8.25322C13.5241 8.44704 11.5942 10.4991 11.5942 13.0022C11.5942 15.632 13.7261 17.7649 16.3569 17.7649C16.6297 17.7649 16.897 17.7419 17.1579 17.6978C19.3192 17.3322 20.9846 15.5107 21.1113 13.2777C21.1169 13.1868 21.1196 13.0949 21.1196 13.0022C21.1196 12.5043 21.0434 12.0248 20.9019 11.5738ZM18.3511 13.23C18.2372 14.2294 17.3866 15.0092 16.3569 15.0092C15.25 15.0092 14.3498 14.1081 14.3498 13.0022C14.3498 11.8962 15.25 10.9942 16.3569 10.9942C17.2139 10.9942 17.9478 11.5352 18.2344 12.293C18.318 12.5135 18.3639 12.7523 18.3639 13.0022C18.3639 13.0793 18.3594 13.1556 18.3511 13.23Z" fill="#1CB78D"/>
<path id="Vector_2" d="M39.2161 11.5738C38.6089 9.64116 36.804 8.23853 34.6711 8.23853C34.5434 8.23853 34.4166 8.24404 34.2908 8.25322C31.8383 8.44704 29.9084 10.4991 29.9084 13.0022C29.9084 15.632 32.0403 17.7649 34.6711 17.7649C34.9439 17.7649 35.2112 17.7419 35.4721 17.6978C37.6334 17.3322 39.2988 15.5107 39.4255 13.2777C39.431 13.1868 39.4338 13.0949 39.4338 13.0022C39.4338 12.5043 39.3576 12.0248 39.2161 11.5738ZM36.6653 13.23C36.5514 14.2294 35.7008 15.0092 34.6711 15.0092C33.5642 15.0092 32.664 14.1081 32.664 13.0022C32.664 11.8962 33.5642 10.9942 34.6711 10.9942C35.5281 10.9942 36.262 11.5352 36.5486 12.293C36.6322 12.5135 36.6781 12.7523 36.6781 13.0022C36.6781 13.0793 36.6735 13.1556 36.6653 13.23Z" fill="#F0F8F0"/>
<path id="Vector_3" d="M128.45 11.5738C127.843 9.64116 126.038 8.23853 123.905 8.23853C123.778 8.23853 123.651 8.24404 123.525 8.25322C121.072 8.44704 119.143 10.4991 119.143 13.0022C119.143 15.632 121.274 17.7649 123.905 17.7649C124.178 17.7649 124.445 17.7419 124.706 17.6978C126.868 17.3322 128.533 15.5107 128.66 13.2777C128.665 13.1868 128.668 13.0949 128.668 13.0022C128.668 12.5043 128.592 12.0248 128.45 11.5738ZM125.899 13.23C125.786 14.2294 124.935 15.0092 123.905 15.0092C122.798 15.0092 121.898 14.1081 121.898 13.0022C121.898 11.8962 122.798 10.9942 123.905 10.9942C124.762 10.9942 125.496 11.5352 125.783 12.293C125.866 12.5135 125.912 12.7523 125.912 13.0022C125.912 13.0793 125.908 13.1556 125.899 13.23Z" fill="#F0F8F0"/>
<path id="Vector_4" d="M26.8909 6.65319C27.1095 6.42814 27.4182 6.31608 27.8177 6.31608C28.0299 6.31608 28.2109 6.35099 28.3606 6.41896C28.5103 6.48785 28.6417 6.5843 28.7537 6.70922L30.5697 4.87395C30.2198 4.52489 29.811 4.24382 29.3435 4.03163C28.875 3.81944 28.3294 3.71289 27.7057 3.71289C26.8946 3.71289 26.1827 3.88833 25.5709 4.23739C24.9592 4.58736 24.4907 5.05858 24.1665 5.65105C23.8413 6.24443 23.6796 6.91498 23.6796 7.6636V8.43152H21.6579V10.8841H23.6796V17.5307H26.563V10.885H29.1653V8.43244H26.563V7.57083C26.563 7.18412 26.6723 6.87824 26.8909 6.65319Z" fill="#F0F8F0"/>
<path id="Vector_5" d="M46.2789 8.245C45.2924 8.245 44.5153 8.53893 43.9476 9.12497C43.9448 9.12865 43.9412 9.1314 43.9384 9.13508V8.43238H41.0551V17.5316H43.9384V12.5512C43.9384 11.9642 44.0789 11.5242 44.36 11.2312C44.6411 10.9382 45.0251 10.7912 45.5119 10.7912C45.7489 10.7912 45.9611 10.8289 46.1485 10.9033C46.3358 10.9786 46.4856 11.0778 46.5976 11.2027L48.3016 9.03128C48.0517 8.76949 47.7614 8.57292 47.4308 8.44157C47.1001 8.31021 46.7161 8.245 46.2789 8.245Z" fill="#F0F8F0"/>
<path id="Vector_6" d="M54.4614 13.6562C54.4614 14.1311 54.3401 14.505 54.0967 14.7796C53.8533 15.0542 53.519 15.1911 53.0946 15.1911C52.8071 15.1911 52.5581 15.1287 52.346 15.0037C52.1338 14.8788 51.9712 14.7015 51.8591 14.47C51.7471 14.2395 51.691 13.9676 51.691 13.6553V8.43237H48.8077V13.6939C48.8077 14.4802 48.9886 15.1764 49.3505 15.7817C49.7125 16.3871 50.2213 16.8647 50.8763 17.2138C51.5312 17.5628 52.2716 17.7383 53.0946 17.7383C53.9176 17.7383 54.6864 17.5665 55.323 17.223C55.9596 16.8794 56.4556 16.4054 56.812 15.8001C57.1675 15.1948 57.3457 14.493 57.3457 13.6939V8.43237H54.4623V13.6562H54.4614Z" fill="#F0F8F0"/>
<path id="Vector_7" d="M71.8919 8.68505C71.3426 8.39203 70.7245 8.24506 70.0383 8.24506C69.3521 8.24506 68.6834 8.39478 68.1093 8.69423C67.7226 8.8954 67.3919 9.1581 67.1127 9.47776C66.8509 9.15167 66.5377 8.88346 66.1712 8.67494C65.666 8.38835 65.101 8.24414 64.4764 8.24414C63.7903 8.24414 63.1813 8.38468 62.6513 8.66576C62.4143 8.7916 62.1993 8.94133 62.0055 9.11401V8.43153H59.1222V17.5308H62.0055V12.2132C62.0055 11.9138 62.0707 11.6575 62.2021 11.4453C62.3334 11.2331 62.5107 11.0678 62.7358 10.9493C62.9608 10.8308 63.2162 10.7711 63.5037 10.7711C63.9152 10.7711 64.2615 10.8988 64.5426 11.155C64.8236 11.4113 64.9642 11.7631 64.9642 12.2132V17.5308H67.8475V12.2132C67.8475 11.9138 67.91 11.6575 68.0349 11.4453C68.1598 11.2331 68.3371 11.0678 68.5686 10.9493C68.7992 10.8308 69.0518 10.7711 69.3273 10.7711C69.7269 10.7711 70.0668 10.8988 70.3478 11.155C70.6289 11.4113 70.7695 11.7631 70.7695 12.2132V17.5308H73.6528V11.8761C73.6528 11.1146 73.4967 10.4661 73.1844 9.92877C72.872 9.39234 72.4412 8.97715 71.8919 8.68321V8.68505Z" fill="#F0F8F0"/>
<path id="Vector_8" d="M81.8436 8.44157C81.5129 8.31021 81.1289 8.245 80.6917 8.245C79.7052 8.245 78.9281 8.53893 78.3604 9.12497C78.3577 9.12865 78.354 9.1314 78.3512 9.13508V8.43238H75.4679V17.5316H78.3512V12.5512C78.3512 11.9642 78.4918 11.5242 78.7728 11.2312C79.0539 10.9382 79.4379 10.7912 79.9247 10.7912C80.1617 10.7912 80.3739 10.8289 80.5613 10.9033C80.7487 10.9786 80.8984 11.0778 81.0105 11.2027L82.7144 9.03128C82.4645 8.76949 82.1743 8.57292 81.8436 8.44157Z" fill="#F0F8F0"/>
<path id="Vector_9" d="M89.5108 9.18468C89.2655 8.95137 88.9817 8.75663 88.6583 8.60048C88.1651 8.36349 87.613 8.245 87.0013 8.245C86.1645 8.245 85.4195 8.448 84.7637 8.85308C84.1087 9.25908 83.5907 9.82032 83.2095 10.5377C82.8283 11.256 82.6381 12.0699 82.6381 12.9811C82.6381 13.8923 82.8283 14.7006 83.2095 15.4061C83.5897 16.1115 84.1115 16.6728 84.7728 17.0916C85.4342 17.5096 86.1773 17.719 87.0013 17.719C87.625 17.719 88.1835 17.6005 88.6767 17.3635C88.9936 17.211 89.271 17.0218 89.5098 16.7949V17.5325H92.3372V8.43238H89.5098V9.18468H89.5108ZM87.6011 15.1167C87.2144 15.1167 86.8681 15.0267 86.5622 14.8448C86.2563 14.6639 86.0129 14.4113 85.8319 14.0861C85.651 13.7618 85.5601 13.3935 85.5601 12.9811C85.5601 12.5686 85.6501 12.2012 85.8319 11.8761C86.0129 11.5518 86.2563 11.2992 86.5622 11.1182C86.8681 10.9373 87.2144 10.8463 87.6011 10.8463C87.9878 10.8463 88.3561 10.9373 88.6684 11.1182C88.9798 11.2992 89.2177 11.549 89.3803 11.8669C89.542 12.1847 89.6237 12.5503 89.6237 12.9618C89.6237 13.5983 89.4391 14.1164 89.0717 14.516C88.7034 14.9156 88.2138 15.1149 87.602 15.1149L87.6011 15.1167Z" fill="#F0F8F0"/>
<path id="Vector_10" d="M101.549 8.68503C101.013 8.39201 100.388 8.24504 99.6774 8.24504C98.9664 8.24504 98.3794 8.39201 97.8421 8.68503C97.6152 8.80903 97.4104 8.956 97.2239 9.1241V3.93884H94.3405V17.5316H97.2239V12.3455C97.2239 12.0332 97.2928 11.7585 97.4297 11.5215C97.5665 11.2845 97.7539 11.0999 97.9918 10.9695C98.2288 10.8381 98.497 10.7729 98.7974 10.7729C99.2466 10.7729 99.6213 10.9199 99.9208 11.2129C100.22 11.5059 100.37 11.8844 100.37 12.3455V17.5316H103.253V11.7089C103.253 11.0228 103.104 10.4202 102.804 9.90211C102.505 9.38405 102.086 8.97896 101.549 8.68503Z" fill="#F0F8F0"/>
<path id="Vector_11" d="M106.867 14.2736C106.367 14.2736 105.958 14.4389 105.641 14.7696C105.323 15.1003 105.163 15.509 105.163 15.9959C105.163 16.4827 105.322 16.8942 105.641 17.2313C105.959 17.5684 106.368 17.7365 106.867 17.7365C107.366 17.7365 107.775 17.5684 108.093 17.2313C108.411 16.8942 108.571 16.4827 108.571 15.9959C108.571 15.509 108.412 15.1003 108.093 14.7696C107.774 14.4389 107.366 14.2736 106.867 14.2736Z" fill="#F0F8F0"/>
<path id="Vector_12" d="M115.883 14.9294C115.59 15.0543 115.255 15.1168 114.88 15.1168C114.506 15.1168 114.137 15.0268 113.813 14.8449C113.488 14.6639 113.235 14.4113 113.055 14.0862C112.874 13.7619 112.783 13.3871 112.783 12.9628C112.783 12.5384 112.873 12.1857 113.055 11.8678C113.236 11.55 113.486 11.3002 113.804 11.1192C114.122 10.9383 114.481 10.8473 114.88 10.8473C115.242 10.8473 115.564 10.9034 115.845 11.0154C116.126 11.1275 116.372 11.3029 116.584 11.5399L118.438 9.6679C117.976 9.19392 117.449 8.83477 116.856 8.59135C116.263 8.34793 115.604 8.22668 114.881 8.22668C113.932 8.22668 113.077 8.43244 112.316 8.84487C111.554 9.25639 110.955 9.8213 110.518 10.5396C110.081 11.2579 109.863 12.0718 109.863 12.983C109.863 13.8942 110.078 14.6933 110.509 15.4171C110.94 16.141 111.536 16.7086 112.297 17.1211C113.059 17.5326 113.914 17.7393 114.862 17.7393C115.611 17.7393 116.282 17.6116 116.875 17.3553C117.467 17.0999 118.007 16.7215 118.494 16.2227L116.64 14.3874C116.428 14.6244 116.176 14.8054 115.883 14.9303V14.9294Z" fill="#F0F8F0"/>
<path id="Vector_13" d="M144.35 9.92963C144.038 9.3932 143.607 8.97801 143.058 8.68407C142.509 8.39105 141.891 8.24408 141.204 8.24408C140.518 8.24408 139.85 8.39381 139.275 8.69326C138.889 8.89442 138.558 9.15713 138.279 9.47679C138.017 9.1507 137.704 8.88248 137.337 8.67397C136.832 8.38738 136.267 8.24316 135.643 8.24316C134.956 8.24316 134.347 8.3837 133.817 8.66478C133.58 8.79062 133.365 8.94035 133.172 9.11304V8.43055H130.288V17.5298H133.172V12.2122C133.172 11.9128 133.237 11.6565 133.368 11.4443C133.5 11.2321 133.677 11.0668 133.902 10.9483C134.127 10.8298 134.382 10.7701 134.67 10.7701C135.081 10.7701 135.428 10.8978 135.709 11.1541C135.99 11.4103 136.13 11.7622 136.13 12.2122V17.5298H139.014V12.2122C139.014 11.9128 139.076 11.6565 139.201 11.4443C139.326 11.2321 139.503 11.0668 139.735 10.9483C139.965 10.8298 140.218 10.7701 140.493 10.7701C140.893 10.7701 141.233 10.8978 141.514 11.1541C141.795 11.4103 141.936 11.7622 141.936 12.2122V17.5298H144.819V11.8751C144.819 11.1137 144.663 10.4652 144.35 9.9278V9.92963Z" fill="#F0F8F0"/>
<g id="Group">
<path id="Vector_14" d="M10.4616 18.1718C10.4616 20.9146 8.23777 23.1384 5.49496 23.1384C2.75215 23.1384 0.52832 20.9146 0.52832 18.1718H3.03506C3.03506 19.5303 4.13641 20.6317 5.49496 20.6317C6.45669 20.6317 7.28982 20.0796 7.69398 19.2759C8.50691 19.0894 9.24267 18.7036 9.84892 18.1718C10.0574 17.989 10.2503 17.7887 10.4258 17.5747C10.4497 17.7704 10.4616 17.9697 10.4616 18.1718Z" fill="#1CB78D"/>
<path id="Vector_15" d="M5.49496 10.7453C4.13641 10.7453 3.03506 11.8466 3.03506 13.2052C3.03506 13.4155 3.0617 13.6185 3.1113 13.8132C3.38228 14.8779 4.34676 15.6641 5.49496 15.6641C6.64315 15.6641 7.60856 14.8769 7.87953 13.8132C7.92913 13.6185 7.95577 13.4146 7.95577 13.2052H10.4625C10.4625 14.1099 10.2209 14.9578 9.79748 15.688C9.35749 16.4495 8.72001 17.0833 7.95577 17.5196C7.93097 17.5343 7.90525 17.5481 7.87953 17.5619C7.17224 17.9504 6.35932 18.1709 5.49496 18.1709C4.6306 18.1709 3.81859 17.9504 3.1113 17.5619C2.84308 17.4149 2.59048 17.245 2.35625 17.053C1.89146 16.6736 1.49556 16.2107 1.19336 15.688C0.770819 14.9578 0.52832 14.109 0.52832 13.2052C0.52832 12.3013 0.765308 11.47 1.17958 10.7453C2.03475 9.24802 3.64682 8.23853 5.49496 8.23853H10.4616V10.7453H5.49496Z" fill="#1CB78D"/>
</g>
</g>
</g>
</svg>
